<?xml version="1.0" encoding="iso-8859-1"?>
<!-- Generator: Adobe Illustrator 19.0.0, SVG Export Plug-In . SVG Version: 6.00 Build 0)  -->
<svg version="1.1" id="Layer_1" xmlns="http://www.w3.org/2000/svg" xmlns:xlink="http://www.w3.org/1999/xlink" x="0px" y="0px"
	 viewBox="0 0 460 460" style="enable-background:new 0 0 460 460;" xml:space="preserve">
<g>
	<path style="fill:#FF984C;" d="M230,0C102.974,0,0,102.975,0,230c0,98.316,61.688,182.224,148.469,215.131l296.707-296.545
		C412.3,61.743,328.36,0,230,0z"/>
	<path style="fill:#FF6E36;" d="M460,230c0-28.666-5.26-56.1-14.841-81.409l-58.82-58.82L370,102.36l-300,25l32.322,32.322
		L80.157,187.36l31.32,31.32v103.923L70,366.64l78.475,78.475C173.816,454.724,201.29,460,230,460C357.026,460,460,357.025,460,230z
		"/>
	<polygon style="fill:#FFFFFF;" points="125,157.36 130,316.64 90,316.64 95,157.36 	"/>
	<polygon style="fill:#FFFFFF;" points="205,157.36 210,316.64 170,316.64 175,157.36 	"/>
	<polygon style="fill:#FFE1A0;" points="255,157.36 250,316.64 290,316.64 285,157.36 	"/>
	<polygon style="fill:#FFE1A0;" points="335,157.36 330,316.64 370,316.64 365,157.36 	"/>
	<polygon style="fill:#FFD170;" points="230,306.64 240,321.64 230,346.64 80.157,336.64 80.157,306.64 	"/>
	<polygon style="fill:#FFC240;" points="380,306.64 380,336.64 230,346.64 230,306.64 	"/>
	<polygon style="fill:#FFE1A0;" points="230,336.64 240,351.64 230,366.64 70,366.64 70,336.64 	"/>
	<polygon style="fill:#FFF0CF;" points="140.157,187.36 80.157,187.36 80.157,167.36 140.157,157.36 	"/>
	<rect x="160" y="157.36" style="fill:#FFF0CF;" width="60" height="30"/>
	<rect x="240" y="157.36" style="fill:#FFC240;" width="60" height="30"/>
	<polygon style="fill:#FFC240;" points="380,187.36 320,187.36 320,157.36 380,167.36 	"/>
	<polygon style="fill:#FFFFFF;" points="230,137.36 240,157 230,167.36 80.157,167.36 80.157,147.36 	"/>
	<polygon style="fill:#FFF0CF;" points="380,147.36 380,167.36 230,167.36 230,137.36 	"/>
	<rect x="230" y="336.64" style="fill:#FFD170;" width="160" height="30"/>
	<path style="fill:#FFE1A0;" d="M240,117.36l-10-50L95,98.61c0-6.903-5.596-12.5-12.5-12.5S70,91.707,70,98.61v8.75L240,117.36z"/>
	<path style="fill:#FFD170;" d="M377.5,86.11c-6.904,0-12.5,5.597-12.5,12.5L230,67.36v50l160-10v-8.75
		C390,91.707,384.404,86.11,377.5,86.11z"/>
	<polygon style="fill:#FFFFFF;" points="230,107.36 240,117 230,137.36 89.922,127.36 70,127.36 70,107.36 	"/>
	<polygon style="fill:#FFF0CF;" points="390,107.36 390,127.36 370.078,127.36 230,137.36 230,107.36 	"/>
	<polygon style="fill:#FFE1A0;" points="230,127.36 240,137 230,147.36 90,147.36 90,127.36 	"/>
	<rect x="230" y="127.36" style="fill:#FFD170;" width="140" height="20"/>
</g>
<g>
</g>
<g>
</g>
<g>
</g>
<g>
</g>
<g>
</g>
<g>
</g>
<g>
</g>
<g>
</g>
<g>
</g>
<g>
</g>
<g>
</g>
<g>
</g>
<g>
</g>
<g>
</g>
<g>
</g>
</svg>
